<svg width="121" height="69" viewBox="0 0 121 69" fill="none" xmlns="http://www.w3.org/2000/svg">
<g clip-path="url(#clip0_271_1002)">
<path d="M4.59123 63.5361V54.459H1.06317V53.547H9.16463V54.459H5.63658V63.5361H4.59123Z" fill="#1D1A6B"/>
<path d="M22.2751 63.623C21.5346 63.623 20.8377 63.4927 20.1844 63.2321C19.531 62.9715 18.9648 62.6241 18.5293 62.1463C18.0501 61.6686 17.7017 61.1474 17.4403 60.5394C17.179 59.9314 17.0483 59.2365 17.0483 58.4981C17.0483 57.7598 17.179 57.1084 17.4403 56.4569C17.7017 55.8489 18.0501 55.2843 18.5293 54.8499C19.0084 54.3722 19.5746 54.0248 20.1844 53.7642C20.8377 53.5036 21.5346 53.3733 22.2751 53.3733C23.0155 53.3733 23.7124 53.5036 24.3658 53.7642C25.0191 54.0248 25.5418 54.3722 26.0209 54.8499C26.5 55.3277 26.8485 55.8489 27.1098 56.4569C27.3712 57.0649 27.5018 57.7598 27.5018 58.4981C27.5018 59.2365 27.3712 59.8879 27.1098 60.5394C26.8485 61.1474 26.5 61.712 26.0209 62.1463C25.5418 62.6241 24.9756 62.9715 24.3658 63.2321C23.7124 63.4927 23.0155 63.623 22.2751 63.623ZM22.2751 62.6675C22.8849 62.6675 23.4511 62.5807 23.9302 62.3635C24.4529 62.1463 24.8885 61.8858 25.2805 61.4949C25.6725 61.104 25.9338 60.6697 26.1516 60.192C26.3694 59.6708 26.4565 59.1496 26.4565 58.5416C26.4565 57.9335 26.3694 57.4124 26.1516 56.8912C25.9338 56.37 25.6289 55.9357 25.2805 55.5883C24.8885 55.1974 24.4529 54.9368 23.9302 54.7197C23.4076 54.5025 22.8413 54.4156 22.2751 54.4156C21.7089 54.4156 21.0991 54.5025 20.62 54.7197C20.0973 54.9368 19.6617 55.1974 19.2697 55.5883C18.8777 55.9791 18.5728 56.4135 18.3986 56.8912C18.1808 57.4124 18.0937 57.9335 18.0937 58.5416C18.0937 59.1496 18.1808 59.6708 18.3986 60.192C18.6164 60.7131 18.9213 61.1474 19.2697 61.4949C19.6617 61.8858 20.0973 62.1463 20.62 62.3635C21.1426 62.5807 21.7089 62.6675 22.2751 62.6675Z" fill="#1D1A6B"/>
<path d="M37.0842 63.5361V53.547H40.8301C42.0932 53.547 43.095 53.851 43.8354 54.459C44.5759 55.0671 44.9244 55.8923 44.9244 56.978C44.9244 58.0638 44.7501 58.281 44.4452 58.8021C44.0968 59.3233 43.6612 59.7142 43.0514 59.9748C42.4416 60.2354 41.7012 60.3656 40.8736 60.3656H37.694L38.1731 59.8879V63.5361H37.1278H37.0842ZM38.1296 59.9313L37.6505 59.4102H40.7865C41.7883 59.4102 42.5723 59.193 43.0514 58.7587C43.5741 58.3244 43.8354 57.7164 43.8354 56.9346C43.8354 56.1529 43.5741 55.5014 43.0514 55.0671C42.5288 54.6328 41.7883 54.4156 40.7865 54.4156H37.6505L38.1296 53.8944V59.9313ZM43.9226 63.5361L41.3527 59.8879H42.4852L45.0986 63.5361H43.9226Z" fill="#1D1A6B"/>
<path d="M58.993 63.623C58.2525 63.623 57.5556 63.4927 56.9023 63.2321C56.2489 62.9715 55.6827 62.6241 55.2472 62.1463C54.768 61.6686 54.4196 61.1474 54.1582 60.5394C53.8969 59.9314 53.7662 59.2365 53.7662 58.4981C53.7662 57.7598 53.8969 57.1084 54.1582 56.4569C54.4196 55.8489 54.768 55.2843 55.2472 54.8499C55.7263 54.3722 56.2925 54.0248 56.9023 53.7642C57.5556 53.5036 58.2525 53.3733 58.993 53.3733C59.7334 53.3733 60.4303 53.5036 61.0837 53.7642C61.737 54.0248 62.2597 54.3722 62.7388 54.8499C63.2179 55.3277 63.5664 55.8489 63.8277 56.4569C64.0891 57.0649 64.2197 57.7598 64.2197 58.4981C64.2197 59.2365 64.0891 59.8879 63.8277 60.5394C63.5664 61.1474 63.2179 61.712 62.7388 62.1463C62.2597 62.6241 61.6935 62.9715 61.0837 63.2321C60.4303 63.4927 59.7334 63.623 58.993 63.623ZM58.993 62.6675C59.6028 62.6675 60.169 62.5807 60.6481 62.3635C61.1708 62.1463 61.6064 61.8858 61.9984 61.4949C62.3904 61.104 62.6517 60.6697 62.8695 60.192C63.0873 59.6708 63.1744 59.1496 63.1744 58.5416C63.1744 57.9335 63.0873 57.4124 62.8695 56.8912C62.6517 56.37 62.3468 55.9357 61.9984 55.5883C61.6064 55.1974 61.1708 54.9368 60.6481 54.7197C60.1255 54.5025 59.5592 54.4156 58.993 54.4156C58.4268 54.4156 57.817 54.5025 57.3379 54.7197C56.8152 54.9368 56.3796 55.1974 55.9876 55.5883C55.5956 55.9791 55.2907 56.4135 55.1165 56.8912C54.8987 57.4124 54.8116 57.9335 54.8116 58.5416C54.8116 59.1496 54.8987 59.6708 55.1165 60.192C55.3343 60.7131 55.6392 61.1474 55.9876 61.4949C56.3796 61.8858 56.8152 62.1463 57.3379 62.3635C57.8605 62.5807 58.4268 62.6675 58.993 62.6675Z" fill="#1D1A6B"/>
<path d="M73.8021 63.5361V53.547H74.6732L81.5987 62.2332H81.1196V53.547H82.1649V63.5361H81.2938L74.3684 54.8499H74.8475V63.5361H73.8021Z" fill="#1D1A6B"/>
<path d="M94.5349 63.5361V54.459H91.0068V53.547H99.1083V54.459H95.5802V63.5361H94.5349Z" fill="#1D1A6B"/>
<path d="M112.219 63.623C111.478 63.623 110.781 63.4927 110.128 63.2321C109.475 62.9715 108.908 62.6241 108.473 62.1463C108.037 61.6686 107.645 61.1474 107.384 60.5394C107.123 59.9314 106.992 59.2365 106.992 58.4981C106.992 57.7598 107.123 57.1084 107.384 56.4569C107.645 55.8489 107.994 55.2843 108.473 54.8499C108.952 54.4156 109.518 54.0248 110.128 53.7642C110.781 53.5036 111.478 53.3733 112.219 53.3733C112.959 53.3733 113.656 53.5036 114.309 53.7642C114.963 54.0248 115.485 54.3722 115.965 54.8499C116.444 55.3277 116.792 55.8489 117.054 56.4569C117.315 57.0649 117.446 57.7598 117.446 58.4981C117.446 59.2365 117.315 59.8879 117.054 60.5394C116.792 61.1474 116.444 61.712 115.965 62.1463C115.485 62.6241 114.919 62.9715 114.309 63.2321C113.7 63.4927 112.959 63.623 112.219 63.623ZM112.219 62.6675C112.829 62.6675 113.395 62.5807 113.874 62.3635C114.397 62.1463 114.832 61.8858 115.224 61.4949C115.616 61.104 115.877 60.6697 116.095 60.192C116.313 59.6708 116.4 59.1496 116.4 58.5416C116.4 57.9335 116.313 57.4124 116.095 56.8912C115.877 56.37 115.573 55.9357 115.224 55.5883C114.832 55.1974 114.397 54.9368 113.874 54.7197C113.351 54.5025 112.785 54.4156 112.219 54.4156C111.653 54.4156 111.043 54.5025 110.564 54.7197C110.041 54.9368 109.605 55.1974 109.213 55.5883C108.821 55.9791 108.516 56.4135 108.342 56.8912C108.124 57.4124 108.037 57.9335 108.037 58.5416C108.037 59.1496 108.124 59.6708 108.342 60.192C108.56 60.7131 108.865 61.1474 109.213 61.4949C109.605 61.8858 110.041 62.1463 110.564 62.3635C111.086 62.5807 111.653 62.6675 112.219 62.6675Z" fill="#1D1A6B"/>
<mask id="mask0_271_1002" style="mask-type:luminance" maskUnits="userSpaceOnUse" x="64" y="-10" width="57" height="35">
<path d="M120.843 -9.21045H64.4812V24.1879H120.843V-9.21045Z" fill="white"/>
</mask>
<g mask="url(#mask0_271_1002)">
<path d="M117.184 16.2401C117.054 16.0664 117.228 14.9806 117.184 14.6332C117.141 14.416 116.618 14.6332 116.574 14.416C116.313 13.1999 117.097 8.42255 116.008 7.77109C114.789 7.03276 114.222 8.29226 114.092 9.29117C113.918 11.0284 114.44 14.0251 114.092 15.5018C114.092 15.6321 113.743 15.6321 113.7 15.7624C113.569 16.2401 113.83 16.8916 113.613 17.3259C113.438 17.6299 113.134 17.3259 113.134 17.239V13.9383H111.217V15.8492H110.651V12.6353C109.997 12.7656 108.865 12.4616 108.299 12.6353C108.081 12.6788 108.212 12.9828 108.168 13.0262C108.168 13.0262 108.037 13.0262 107.994 13.0262C107.689 13.0697 106.557 12.9394 106.469 13.0262C106.339 13.1565 106.557 16.2835 106.469 16.8047C106.339 16.8047 106.208 16.8047 106.077 16.8047C106.077 16.8047 106.077 16.7613 106.077 16.7179C106.077 15.5887 106.121 14.416 106.077 13.2868C106.077 13.0697 106.208 12.5919 105.903 12.6353V16.631C105.555 16.631 105.729 16.1967 105.729 15.9795C105.685 14.6332 105.729 13.2434 105.729 11.897C105.381 11.8102 105.424 12.0273 105.337 12.0707C105.119 12.201 103.812 13.0262 103.812 13.1131V15.8492L103.246 15.4149L102.941 4.20975C103.072 4.16632 103.203 4.03603 103.203 3.86231C103.464 3.86231 103.682 3.64515 103.682 3.38456H103.856C103.987 3.38456 104.117 3.25427 104.117 3.12398H104.379V2.81996H104.117C104.117 2.7331 103.987 2.64624 103.9 2.64624H103.725C103.725 2.47252 103.595 2.34222 103.42 2.25536C103.42 2.25536 103.29 2.21193 103.246 2.21193C103.246 2.08164 103.116 1.99478 102.941 1.95134V0.170678C102.898 0.170678 102.898 -1.08882 102.898 -1.08882C102.898 -1.26254 102.898 -1.4797 102.854 -1.69685V-3.3038H102.593V-5.47534H102.375V-3.3038H102.201L102.07 1.95134C101.896 1.95134 101.722 2.08164 101.722 2.25536H101.591C101.373 2.25536 101.156 2.42908 101.156 2.64624H101.068C100.938 2.64624 100.851 2.7331 100.851 2.81996H100.633V3.12398H100.807C100.807 3.25427 100.938 3.38456 101.068 3.38456H101.156C101.156 3.64515 101.373 3.86231 101.635 3.86231H101.765C101.765 4.07946 101.896 4.20975 102.114 4.25318L101.94 12.6353L101.852 15.1543C100.676 15.0241 100.633 15.4149 100.72 16.5007C100.546 16.327 100.372 16.1967 100.197 16.023V14.72H99.6311C98.9778 13.808 97.3662 13.2 95.4933 13.2C93.6203 13.2 92.0088 13.8514 91.3554 14.72H90.7021V15.3281C90.615 15.3281 90.3536 15.8058 90.3101 15.8927C90.1794 15.8927 90.0052 15.8927 89.9181 15.8927C89.8309 15.3715 90.1358 14.5897 89.7438 14.1989C89.7438 12.3748 89.7438 10.5072 89.7438 8.68314H87.6531C87.6531 8.55284 87.3482 8.24883 87.2611 8.11854C87.1305 7.81452 87.0869 7.38021 86.8691 7.16305C86.6949 6.98933 86.5207 6.9459 86.3029 6.9459V5.29553H85.5624H85.1704V11.3324L84.038 11.1587V12.0273C84.038 12.0273 84.038 12.0273 83.9944 12.0707L83.646 11.897V12.6353L83.9508 12.3313C83.9508 12.4182 83.9508 12.5051 83.9944 12.5919V16.2835H83.0362C82.8619 15.5018 83.2539 10.4204 83.0362 10.2032C82.9491 10.1164 81.7295 10.2466 81.381 10.2032V7.68423H79.5517V9.11745C79.5517 9.3346 79.5517 9.55175 79.5517 9.81234V13.808C79.3774 13.808 78.8112 13.6777 78.6805 13.808C78.5499 13.8948 78.6805 14.6766 78.0707 14.5463V10.6375C78.0707 10.4204 77.461 10.4204 77.3303 10.2901V7.90138C77.3303 7.46707 77.3303 7.03276 77.3303 6.64188V5.38239H75.5009V11.593C75.4138 11.8102 75.2396 11.9839 75.2396 12.201C75.1525 12.8091 75.3267 13.504 75.2396 14.112C75.2396 14.3726 75.1089 14.72 74.8476 14.3726V7.33678C74.8476 7.20649 74.7169 7.16305 74.4991 7.16305V6.90247H72.9311V12.5919C72.8876 12.5919 72.844 12.6353 72.7569 12.6788C71.3631 13.0697 72.2778 12.4182 72.0164 12.1142C71.9729 12.0707 71.4066 12.1576 71.276 12.1142C71.1889 11.593 71.4066 10.7678 71.276 10.3335C71.276 10.2032 70.7533 10.1164 70.5355 10.0295V9.37803H69.011V9.68205C69.011 9.68205 69.011 9.46489 68.8368 9.50832C68.9239 9.76891 68.6626 10.0729 68.6626 10.2466C68.5319 11.4193 68.7497 12.8525 68.6626 14.0251C68.4884 14.0251 68.0093 14.0686 67.7915 14.0251V11.1587C67.7915 10.4638 67.8786 9.81234 67.7915 9.20431C67.7915 9.03059 67.7915 8.98715 67.5737 8.94372C67.4866 8.94372 67.2688 8.98715 67.2252 8.94372C67.0946 8.77 67.3559 8.2054 67.0946 8.2054C66.3106 8.37912 66.1363 8.29226 65.6137 8.90029C65.5266 8.98715 65.3088 8.94372 65.3088 8.98715V14.5029H64.7425V8.72657C64.7425 8.68314 64.307 7.85795 64.2634 7.85795C64.1763 7.85795 62.8696 7.81452 62.8696 7.85795V10.8981C61.7372 11.0718 62.3034 10.681 61.9985 10.1598C61.6936 9.59519 60.2127 9.55175 60.2127 10.2466V14.72H59.4722V19.8449H118.055V16.4138C118.055 16.4138 117.576 16.4573 117.489 16.4138L117.184 16.2401Z" fill="#1D1A6B"/>
</g>
<path d="M0.366211 19.1065V2.51587H3.54582L13.346 14.4594H11.8215V2.51587H15.6109V19.1065H12.4313L2.63114 7.16298H4.15561V19.1065H0.366211Z" fill="#1D1A6B"/>
<path d="M26.9791 19.4105C24.627 19.4105 22.7541 18.7591 21.4474 17.4561C20.0972 16.1532 19.4438 14.2857 19.4438 11.8101V2.55933H23.3204V11.7232C23.3204 13.2868 23.6252 14.416 24.2786 15.1109C24.9319 15.8058 25.8466 16.1532 26.9791 16.1532C28.1115 16.1532 29.0698 15.8058 29.7231 15.1109C30.3765 14.416 30.6814 13.2868 30.6814 11.7232V2.55933H34.4708V11.8101C34.4708 14.2422 33.8174 16.1532 32.4672 17.4561C31.1169 18.7591 29.2876 19.4105 26.9355 19.4105H26.9791Z" fill="#1D1A6B"/>
<path d="M38.3037 19.1065V2.51587H42.1802V19.1065H38.3037Z" fill="#1D1A6B"/>
<path d="M49.5412 19.1065V5.6429H44.2274V2.51587H58.7316V5.6429H53.4177V19.1065H49.5848H49.5412Z" fill="#1D1A6B"/>
<path d="M0.366227 42.9934V26.4028H8.51125C10.6019 26.4028 12.17 26.7937 13.2153 27.5755C14.2607 28.3572 14.7833 29.3996 14.7833 30.7025C14.7833 32.0054 14.5656 32.3094 14.13 32.9609C13.6944 33.6124 13.1282 34.0901 12.3442 34.4376C11.6037 34.785 10.7326 34.9587 9.77438 34.9587L10.2099 33.9598C11.2553 33.9598 12.17 34.1335 12.9975 34.481C13.7816 34.8284 14.4349 35.3496 14.8705 36.0011C15.3496 36.6525 15.5674 37.4777 15.5674 38.4332C15.5674 39.8664 15.0011 40.9522 13.8687 41.7774C12.7362 42.5591 11.0811 42.9934 8.90325 42.9934H0.279114H0.366227ZM4.19918 40.127H8.72903C9.73082 40.127 10.4713 39.9533 10.994 39.6493C11.5166 39.3018 11.778 38.8241 11.778 38.1292C11.778 37.4343 11.5166 36.9131 10.994 36.5657C10.4713 36.2182 9.73082 36.0879 8.72903 36.0879H3.93784V33.3083H8.03213C8.94681 33.3083 9.68727 33.1346 10.1664 32.8306C10.6455 32.5266 10.9068 32.0054 10.9068 31.354C10.9068 30.7025 10.6455 30.1813 10.1664 29.8773C9.68727 29.5733 8.94681 29.3996 8.03213 29.3996H4.19918V40.2139V40.127Z" fill="#1D1A6B"/>
<path d="M18.5292 42.9934V26.4028H22.4057V39.8664H30.6814V42.9934H18.5292Z" fill="#1D1A6B"/>
<path d="M30.812 42.9934L38.2166 26.4028H42.006L49.4541 42.9934H45.4034L39.3055 28.3572H40.83L34.7321 42.9934H30.7685H30.812ZM34.5579 39.4755L35.5161 36.5657H44.1403L45.1421 39.4755H34.5579Z" fill="#1D1A6B"/>
<path d="M51.1964 42.9934V26.4028H54.376L64.1762 38.3463H62.6517V26.4028H66.4411V42.9934H63.2615L53.4613 31.0499H54.9858V42.9934H51.1964Z" fill="#1D1A6B"/>
<path d="M78.3755 43.2974C77.1124 43.2974 75.8928 43.0803 74.8039 42.6894C73.715 42.2551 72.7568 41.6905 71.9292 40.9087C71.1016 40.127 70.4918 39.2149 70.0563 38.1726C69.6207 37.1303 69.3594 36.0011 69.3594 34.7416C69.3594 33.4821 69.5772 32.3529 70.0563 31.3105C70.4918 30.2682 71.1452 29.3561 71.9728 28.5744C72.8003 27.7926 73.7586 27.1846 74.8475 26.7937C75.9364 26.3594 77.1559 26.1857 78.4191 26.1857C79.6822 26.1857 81.1631 26.4463 82.3391 26.924C83.5152 27.4017 84.4734 28.1401 85.301 29.0955L82.8183 31.3539C82.252 30.7025 81.6422 30.2247 80.9453 29.8773C80.2484 29.5298 79.4644 29.3996 78.6369 29.3996C77.8093 29.3996 77.1559 29.5298 76.5026 29.7904C75.8493 30.051 75.283 30.3985 74.8039 30.8762C74.3248 31.3539 73.9763 31.9185 73.715 32.57C73.4537 33.2215 73.323 33.9164 73.323 34.7416C73.323 35.5667 73.4537 36.2616 73.715 36.9131C73.9763 37.5646 74.3248 38.1292 74.8039 38.6069C75.283 39.0846 75.8493 39.4321 76.5026 39.6927C77.1559 39.9533 77.8528 40.0836 78.6369 40.0836C79.4209 40.0836 80.2049 39.9098 80.9453 39.5624C81.6422 39.2149 82.2956 38.7372 82.8183 38.0857L85.301 40.3441C84.517 41.2996 83.5152 42.038 82.3391 42.5591C81.1631 43.0803 79.8564 43.2974 78.3755 43.2974Z" fill="#1D1A6B"/>
<path d="M87.6094 42.9934V26.4028H91.4859V42.9934H87.6094ZM91.181 36.2182V32.9609H99.3261V36.2182H91.181ZM99.0212 42.9934V26.4028H102.854V42.9934H99.0212Z" fill="#1D1A6B"/>
<path d="M106.818 42.9934V26.4028H119.406V29.4864H110.651V39.9098H119.71V42.9934H106.818ZM110.389 36.0879V33.0912H118.404V36.0879H110.389Z" fill="#1D1A6B"/>
</g>
<defs>
<clipPath id="clip0_271_1002">
<rect width="121" height="69" fill="white"/>
</clipPath>
</defs>
</svg>
